# xmcd
#
# Track frame offsets:
#	182
#	11612
#	22470
#	32372
#	45690
#	58335
#	78747
#	96365
#	108147
#	120740
#	135245
#	147625
#	160540
#	171862
#	180690
#	196310
#	207437
#
# Disc length: 2901
#
# Revision: 3
# Processed by: cddbd v1.5.1PL0 Copyright (c) Steve Scherf et al.
# Submitted via: audiograbber 1.80
# Normalized: r1:TDELIM( - ),TSWAP
#
DISCID=ef0b5311
DTITLE=Gold-Serie - The Best of Country and Western 3
DYEAR=1900
DGENRE=
TTITLE0=Bobby Bare - Music City USA
TTITLE1=Ferlin Husky - The Bridge I Have Never Crossed
TTITLE2=Don Williams - Take My Hand For A While
TTITLE3=Dave Dudley - Counterfeit Cowboy
TTITLE4=Dolly Parton - Little Blossom
TTITLE5=Emmylou Harris and Gram Parsons - Love Hurts
TTITLE6=Bobby Bare - Sylvia`s Mother
TTITLE7=Dave Dudley - Mary Lou You Took The Party With You
TTITLE8=Oak Ridge Boys - You ÌI Never Walk Alone
TTITLE9=Willie Nelson - Will You Remember Mine
TTITLE10=Franklin Laine - Moonlight Gambler
TTITLE11=Dave Dudley - Have it You Way
TTITLE12=Georges Jones - I Can`t Change Overnight
TTITLE13=The Nashville Gamblers - Footprints in The Snow
TTITLE14=Karen O`Donell - I Know What it`s All About Now,Mama
TTITLE15=The Nashville Gamblers - Home On The Range
TTITLE16=Bobby Joe Bratcher - Carry Me Back To Old Virginny
EXTD=Kein richtiger Interpret da Country-Album
EXTT0=
EXTT1=
EXTT2=
EXTT3=
EXTT4=
EXTT5=
EXTT6=
EXTT7=
EXTT8=
EXTT9=
EXTT10=
EXTT11=
EXTT12=
EXTT13=
EXTT14=
EXTT15=
EXTT16=
PLAYORDER=
